<?xml version="1.0" standalone="no"?>
<!DOCTYPE svg PUBLIC "-//W3C//DTD SVG 20010904//EN"
 "http://www.w3.org/TR/2001/REC-SVG-20010904/DTD/svg10.dtd">
<svg version="1.0" xmlns="http://www.w3.org/2000/svg"
 width="404.000000pt" height="104.000000pt" viewBox="0 0 404.000000 104.000000"
 preserveAspectRatio="xMidYMid meet">

<g transform="translate(0.000000,104.000000) scale(0.100000,-0.100000)"
fill="#000000" stroke="none">
<path d="M1816 818 c-14 -19 -16 -65 -16 -305 l0 -283 25 0 25 0 0 305 c0 181
-4 305 -10 305 -5 0 -16 -10 -24 -22z"/>
<path d="M253 719 c-64 -15 -68 -25 -50 -123 8 -46 27 -112 41 -147 15 -38 22
-65 15 -67 -20 -7 -68 -53 -74 -72 -11 -35 20 -86 66 -108 62 -30 129 -40 129
-19 0 10 -13 17 -38 22 -56 9 -116 46 -120 74 -4 24 32 71 54 71 6 0 17 6 23
14 9 10 5 26 -14 67 -26 56 -62 195 -53 204 3 3 22 -1 44 -8 68 -24 104 -28
104 -13 0 9 -25 22 -62 33 -33 10 -61 23 -60 28 1 13 36 23 85 24 26 1 37 6
37 16 0 17 -58 19 -127 4z"/>
<path d="M800 718 c0 -8 14 -19 30 -25 17 -6 30 -16 30 -22 0 -6 -13 -14 -30
-17 -16 -4 -30 -13 -30 -20 0 -16 19 -18 54 -5 23 9 24 8 23 -16 -2 -22 3 -28
29 -33 46 -10 54 -18 54 -55 0 -46 -40 -92 -93 -106 -49 -12 -72 -36 -56 -56
6 -7 17 -13 23 -13 17 0 56 -43 56 -62 0 -15 -36 -51 -75 -73 -10 -6 -16 -16
-14 -22 3 -7 19 -4 47 10 77 36 94 120 32 155 -36 20 -38 32 -7 32 34 0 97 48
113 85 8 20 11 47 8 65 -7 31 -46 70 -71 70 -10 0 -12 6 -7 23 19 58 3 77 -78
91 -28 5 -38 3 -38 -6z"/>
<path d="M3230 695 c0 -19 5 -35 10 -35 6 0 10 16 10 35 0 19 -4 35 -10 35 -5
0 -10 -16 -10 -35z"/>
<path d="M1502 604 c-21 -15 -22 -21 -22 -178 0 -197 -1 -196 108 -196 110 0
112 4 112 190 0 147 -1 152 -25 175 -20 21 -34 25 -87 25 -41 0 -71 -5 -86
-16z m128 -185 l0 -120 -42 3 -43 3 -3 104 c-1 58 -8 111 -14 118 -8 10 1 13
46 13 l56 0 0 -121z"/>
<path d="M3368 425 l3 -195 34 0 35 0 0 143 c0 98 -4 147 -12 155 -9 9 0 12
40 12 l52 0 0 -155 0 -155 35 0 35 0 0 175 c0 220 3 215 -132 215 l-93 0 3
-195z"/>
<path d="M1210 591 c-5 -11 -10 -85 -10 -168 0 -190 2 -193 106 -193 l74 0 0
34 0 35 -52 3 -53 3 -3 104 c-1 58 -8 111 -14 118 -8 10 2 13 56 13 l66 0 0
35 0 35 -80 0 c-68 0 -81 -3 -90 -19z"/>
<path d="M3230 420 c0 -120 4 -190 10 -190 6 0 10 70 10 190 0 120 -4 190 -10
190 -6 0 -10 -70 -10 -190z"/>
<path d="M3712 598 c-17 -17 -17 -339 0 -356 7 -7 43 -12 90 -12 l78 0 0 35 0
34 -57 3 -58 3 -3 104 c-1 58 -8 111 -14 118 -8 10 3 13 61 13 l71 0 0 35 0
35 -78 0 c-47 0 -83 -5 -90 -12z"/>
<path d="M266 564 c20 -86 63 -168 79 -152 10 9 -29 168 -41 168 -7 0 -20 3
-29 6 -13 5 -15 2 -9 -22z"/>
<path d="M876 515 c-27 -63 -17 -72 31 -31 l28 25 -22 22 -22 22 -15 -38z"/>
<path d="M332 299 c2 -7 14 -19 26 -27 19 -13 22 -13 22 0 0 8 -12 20 -26 27
-20 9 -25 9 -22 0z"/>
</g>
</svg>
